<svg width="50" height="50" viewBox="0 0 50 50" fill="none" xmlns="http://www.w3.org/2000/svg">
<path fill-rule="evenodd" clip-rule="evenodd" d="M39.1411 10.7318H10.9059L8.49344 6.40752C8.22265 5.92214 7.71038 5.62134 7.15458 5.62134H4.08833C3.24161 5.62134 2.55521 6.30774 2.55521 7.15446C2.55521 8.00118 3.24161 8.68759 4.08833 8.68759H6.25433L8.63516 12.9551L14.1259 25.104L14.1316 25.1164L14.6152 26.1865L9.1024 32.0668C8.70601 32.4896 8.58193 33.0998 8.78171 33.6439C8.98149 34.1879 9.47097 34.5728 10.0468 34.6386L15.0716 35.2129C21.3568 35.9312 27.7033 35.9312 33.9884 35.2129L39.0133 34.6386C39.8545 34.5425 40.4586 33.7825 40.3624 32.9413C40.2663 32.1001 39.5064 31.496 38.6651 31.5922L33.6403 32.1664C27.5865 32.8583 21.4736 32.8583 15.4198 32.1664L13.4257 31.9385L17.4718 27.6226C17.511 27.5809 17.5473 27.5375 17.5809 27.4928L19.1198 27.693C21.2762 27.9736 23.456 28.0286 25.6239 27.8572C30.6801 27.4573 35.3662 25.0513 38.6378 21.1756L39.8194 19.7757C39.8591 19.7286 39.8959 19.6793 39.9297 19.6279L42.132 16.2716C43.6931 13.8927 41.9865 10.7318 39.1411 10.7318ZM17.6949 24.4155C17.3567 24.3715 17.0652 24.1567 16.9228 23.8472L16.9201 23.8412L12.381 13.798H39.1412C39.5476 13.798 39.7914 14.2496 39.5684 14.5894L37.4168 17.8684L36.2947 19.1977C33.5513 22.4477 29.6219 24.4651 25.3821 24.8004C23.4267 24.9551 21.4605 24.9055 19.5154 24.6524L17.6949 24.4155Z" fill="black"/>
<path d="M13.2871 37.817C11.5936 37.817 10.2208 39.1898 10.2208 40.8832C10.2208 42.5767 11.5936 43.9495 13.2871 43.9495C14.9805 43.9495 16.3533 42.5767 16.3533 40.8832C16.3533 39.1898 14.9805 37.817 13.2871 37.817Z" fill="black"/>
<path d="M32.7067 40.8832C32.7067 39.1898 34.0795 37.817 35.7729 37.817C37.4664 37.817 38.8392 39.1898 38.8392 40.8832C38.8392 42.5767 37.4664 43.9495 35.7729 43.9495C34.0795 43.9495 32.7067 42.5767 32.7067 40.8832Z" fill="black"/>
<path fill-rule="evenodd" clip-rule="evenodd" d="M39.1411 10.7318H10.9059L8.49344 6.40752C8.22265 5.92214 7.71038 5.62134 7.15458 5.62134H4.08833C3.24161 5.62134 2.55521 6.30774 2.55521 7.15446C2.55521 8.00118 3.24161 8.68759 4.08833 8.68759H6.25433L8.63516 12.9551L14.1259 25.104L14.1316 25.1164L14.6152 26.1865L9.1024 32.0668C8.70601 32.4896 8.58193 33.0998 8.78171 33.6439C8.98149 34.1879 9.47097 34.5728 10.0468 34.6386L15.0716 35.2129C21.3568 35.9312 27.7033 35.9312 33.9884 35.2129L39.0133 34.6386C39.8545 34.5425 40.4586 33.7825 40.3624 32.9413C40.2663 32.1001 39.5064 31.496 38.6651 31.5922L33.6403 32.1664C27.5865 32.8583 21.4736 32.8583 15.4198 32.1664L13.4257 31.9385L17.4718 27.6226C17.511 27.5809 17.5473 27.5375 17.5809 27.4928L19.1198 27.693C21.2762 27.9736 23.456 28.0286 25.6239 27.8572C30.6801 27.4573 35.3662 25.0513 38.6378 21.1756L39.8194 19.7757C39.8591 19.7286 39.8959 19.6793 39.9297 19.6279L42.132 16.2716C43.6931 13.8927 41.9865 10.7318 39.1411 10.7318ZM17.6949 24.4155C17.3567 24.3715 17.0652 24.1567 16.9228 23.8472L16.9201 23.8412L12.381 13.798H39.1412C39.5476 13.798 39.7914 14.2496 39.5684 14.5894L37.4168 17.8684L36.2947 19.1977C33.5513 22.4477 29.6219 24.4651 25.3821 24.8004C23.4267 24.9551 21.4605 24.9055 19.5154 24.6524L17.6949 24.4155Z" stroke="black" stroke-linecap="round" stroke-linejoin="round"/>
<path d="M13.2871 37.817C11.5936 37.817 10.2208 39.1898 10.2208 40.8832C10.2208 42.5767 11.5936 43.9495 13.2871 43.9495C14.9805 43.9495 16.3533 42.5767 16.3533 40.8832C16.3533 39.1898 14.9805 37.817 13.2871 37.817Z" stroke="black" stroke-linecap="round" stroke-linejoin="round"/>
<path d="M32.7067 40.8832C32.7067 39.1898 34.0795 37.817 35.7729 37.817C37.4664 37.817 38.8392 39.1898 38.8392 40.8832C38.8392 42.5767 37.4664 43.9495 35.7729 43.9495C34.0795 43.9495 32.7067 42.5767 32.7067 40.8832Z" stroke="black" stroke-linecap="round" stroke-linejoin="round"/>
</svg>
